# xmcd CD database file
#
# Track frame offsets:
#	150
#	15207
#	28286
#	43668
#	58405
#	73150
#	82572
#	97930
#	110284
#	127652
#	138398
#	155546
#	171217
#	187172
#	199226
#
# Disc length: 2782 seconds
#
# Revision: 0
# Processed by: cddbd v1.5.1PL0 Copyright (c) Steve Scherf et al.
# Submitted via: CDex 1.51
#
DISCID=c50adc0f
DTITLE=Harry James - Concerto For Trumpet
DYEAR=1900
DGENRE=Jazz
TTITLE0=MUSIC MAKERS
TTITLE1=CONCERTO FOR TRUMPET
TTITLE2=FLATBUSH FLANAGAN
TTITLE3=DON`T BE THAT WAY
TTITLE4=SEPTEMBER SONG FROM "KNICKERBOCKER HOLIDAY"
TTITLE5=THERE THEY GO
TTITLE6=YOU TURNED THE TABLES ON ME
TTITLE7=THE ARRIVAL
TTITLE8=SIX, TWO AND EVEN
TTITLE9=`CEPT FEBRUARY, WHICH HAS
TTITLE10=THINGS AIN`T WHAT THEY USED TO BE
TTITLE11=1 MAY BE WRONG
TTITLE12=LOVER
TTITLE13=SNOOTY FRUITY
TTITLE14=BELLS
EXTD=
EXTT0=
EXTT1=
EXTT2=
EXTT3=
EXTT4=
EXTT5=
EXTT6=
EXTT7=
EXTT8=
EXTT9=
EXTT10=
EXTT11=
EXTT12=
EXTT13=
EXTT14=
PLAYORDER=
